
<svg xmlns="http://www.w3.org/2000/svg" xmlns:xlink="http://www.w3.org/1999/xlink" version="1.0" x="0" y="0" width="2400" height="410.280808771325" viewBox="31.43310272216797 101.31194030761719 277.13379455566405 47.37611557006836" preserveAspectRatio="xMidYMid meet" color-interpolation-filters="sRGB"><g><defs><linearGradient id="92" x1="0%" y1="0%" x2="100%" y2="0%"><stop offset="0%" stop-color="#fa71cd"></stop> <stop offset="100%" stop-color="#9b59b6"></stop></linearGradient><linearGradient id="93" x1="0%" y1="0%" x2="100%" y2="0%"><stop offset="0%" stop-color="#f9d423"></stop> <stop offset="100%" stop-color="#f83600"></stop></linearGradient><linearGradient id="94" x1="0%" y1="0%" x2="100%" y2="0%"><stop offset="0%" stop-color="#0064d2"></stop> <stop offset="100%" stop-color="#1cb0f6"></stop></linearGradient><linearGradient id="95" x1="0%" y1="0%" x2="100%" y2="0%"><stop offset="0%" stop-color="#f00978"></stop> <stop offset="100%" stop-color="#3f51b1"></stop></linearGradient><linearGradient id="96" x1="0%" y1="0%" x2="100%" y2="0%"><stop offset="0%" stop-color="#7873f5"></stop> <stop offset="100%" stop-color="#ec77ab"></stop></linearGradient><linearGradient id="97" x1="0%" y1="0%" x2="100%" y2="0%"><stop offset="0%" stop-color="#f9d423"></stop> <stop offset="100%" stop-color="#e14fad"></stop></linearGradient><linearGradient id="98" x1="0%" y1="0%" x2="100%" y2="0%"><stop offset="0%" stop-color="#009efd"></stop> <stop offset="100%" stop-color="#2af598"></stop></linearGradient><linearGradient id="99" x1="0%" y1="0%" x2="100%" y2="0%"><stop offset="0%" stop-color="#ffcc00"></stop> <stop offset="100%" stop-color="#00b140"></stop></linearGradient><linearGradient id="100" x1="0%" y1="0%" x2="100%" y2="0%"><stop offset="0%" stop-color="#d51007"></stop> <stop offset="100%" stop-color="#ff8177"></stop></linearGradient><linearGradient id="102" x1="0%" y1="0%" x2="100%" y2="0%"><stop offset="0%" stop-color="#a2b6df"></stop> <stop offset="100%" stop-color="#0c3483"></stop></linearGradient><linearGradient id="103" x1="0%" y1="0%" x2="100%" y2="0%"><stop offset="0%" stop-color="#7ac5d8"></stop> <stop offset="100%" stop-color="#eea2a2"></stop></linearGradient><linearGradient id="104" x1="0%" y1="0%" x2="100%" y2="0%"><stop offset="0%" stop-color="#00ecbc"></stop> <stop offset="100%" stop-color="#007adf"></stop></linearGradient><linearGradient id="105" x1="0%" y1="0%" x2="100%" y2="0%"><stop offset="0%" stop-color="#b88746"></stop> <stop offset="100%" stop-color="#fdf5a6"></stop></linearGradient></defs><g fill="#0080ff" class="icon-text-wrapper icon-svg-group iconsvg" transform="translate(34.15010070800781,104.02894020080566)"><g class="iconsvg-imagesvg" transform="translate(0,0)"><g><rect fill="#0080ff" fill-opacity="0" stroke-width="2" x="0" y="0" width="41.999999999999986" height="41.94211987457308" class="image-rect"></rect> <svg x="0" y="0" width="41.999999999999986" height="41.94211987457308" filtersec="colorsb5181854972" class="image-svg-svg primary" style="overflow: visible;"><svg xmlns="http://www.w3.org/2000/svg" viewBox="0 0 76.104736328125 76"><path d="M61.11 20h9.69c1.61 0 3.66-.7 4.71.32s.39 3.21.39 4.86c0 16.22 0 32.43.08 48.64 0 1.77-.51 2.18-2.22 2.18Q47.9 75.88 22 76c-1.61 0-2-.43-2-2 .07-13.44 0-26.88.06-40.32 0-4.07 2.59-6.89 6.27-6.9s6.4 2.89 6.41 7v24.23c0 1.41.35 1.89 1.8 1.81a68.44 68.44 0 0 1 6.87 0c1.41.06 1.84-.37 1.83-1.81q-.09-12.21 0-24.41c0-4.85 4.26-8 8.56-6.44a6.27 6.27 0 0 1 4.2 6.1c0 8.14.06 16.27 0 24.41 0 1.64.39 2.21 2.08 2.11 2.41-.15 4.82-.06 7.24 0 .77 0 1.25-.16 1.24-1.09 0-8.92 0-17.84-.13-26.75a15.82 15.82 0 0 0-4.61-10.54 7.62 7.62 0 0 1-.66-.84c-.1-.11-.05-.25-.05-.56z" fill="#0080ff"></path><path d="M.08 28V1.79C0 .44.39 0 1.85 0q26.21.08 52.41 0c1.31 0 1.79.31 1.76 1.7-.07 4.7 0 9.4 0 14.09 0 1.23-.25 1.59-1.55 1.19a16.07 16.07 0 0 0-15.15 2.85 1.74 1.74 0 0 1-2.6 0c-6.85-5.34-16.72-5.19-23.57 2.76a15.12 15.12 0 0 0-3.55 10.2c.07 7.11 0 14.22.06 21.33 0 1.45-.32 2.05-1.88 2a45.59 45.59 0 0 0-6 0C.35 56.17 0 55.64 0 54.24.06 45.5 0 36.77 0 28z" fill="#93c13d"></path></svg></svg> </g></g> <g transform="translate(57,9.665756225585938)"><g fill-rule="" stroke="#0080ff" class="tp-name iconsvg-namesvg"><g transform="scale(1.02)"><g><path d="M22.84-21.8224L28.2-21.8224 28.2 0 23.45 0 23.45-14.1956 17.09 0 13.49 0 7.1-14.1956 7.1 0 2.34 0 2.34-21.8224 7.75-21.8224 15.29-5.5936 22.84-21.8224ZM50.39-9.034400000000002Q50.39-8.096000000000002 50.26-7.3508000000000004L50.26-7.3508000000000004 36.5-7.3508000000000004Q36.67-5.474 37.92-4.4068000000000005 39.18-3.3488 41.02-3.3488L41.02-3.3488Q43.67-3.3488 44.79-5.437200000000001L44.79-5.437200000000001 49.92-5.437200000000001Q49.1-2.9348 46.79-1.3248 44.48 0.2852 41.12 0.2852L41.12 0.2852Q38.4 0.2852 36.24-0.8280000000000001 34.08-1.9412 32.88-3.9744000000000006 31.67-5.9984 31.67-8.657200000000001L31.67-8.657200000000001Q31.67-11.3528 32.86-13.3768 34.05-15.41 36.19-16.504800000000003 38.33-17.5996 41.12-17.5996L41.12-17.5996Q43.8-17.5996 45.93-16.541600000000003 48.05-15.474400000000001 49.22-13.524 50.39-11.564400000000001 50.39-9.034400000000002L50.39-9.034400000000002ZM36.53-10.2856L45.47-10.2856Q45.43-11.9692 44.14-12.9904 42.85-14.002400000000002 40.98-14.002400000000002L40.98-14.002400000000002Q39.21-14.002400000000002 38.01-13.018 36.8-12.0336 36.53-10.2856L36.53-10.2856ZM77.24-17.572000000000003Q80.71-17.572000000000003 82.83-15.6124 84.95-13.662 84.95-10.1568L84.95-10.1568 84.95 0 80.2 0 80.2-9.568000000000001Q80.2-11.6012 79.07-12.6776 77.95-13.754 76.02-13.754L76.02-13.754Q74.08-13.754 72.94-12.6776 71.8-11.6012 71.8-9.568000000000001L71.8-9.568000000000001 71.8 0 67.05 0 67.05-9.568000000000001Q67.05-11.6012 65.92-12.6776 64.8-13.754 62.87-13.754L62.87-13.754Q60.89-13.754 59.76-12.6776 58.62-11.6012 58.62-9.568000000000001L58.62-9.568000000000001 58.62 0 53.86 0 53.86-17.3236 58.62-17.3236 58.62-15.226Q59.54-16.3208 60.98-16.9464 62.42-17.572000000000003 64.16-17.572000000000003L64.16-17.572000000000003Q66.37-17.572000000000003 68.1-16.7072 69.83-15.851600000000001 70.78-14.26L70.78-14.26Q71.7-15.759599999999999 73.45-16.6612 75.2-17.572000000000003 77.24-17.572000000000003L77.24-17.572000000000003ZM97.83 0.2852Q95.11 0.2852 92.94-0.8280000000000001 90.76-1.9412 89.52-3.9744000000000006 88.28-5.9984 88.28-8.657200000000001L88.28-8.657200000000001Q88.28-11.316 89.56-13.3492 90.83-15.382399999999999 93.04-16.4956 95.25-17.5996 97.97-17.5996L97.97-17.5996Q100.69-17.5996 102.9-16.4956 105.1-15.382399999999999 106.38-13.3492 107.65-11.316 107.65-8.657200000000001L107.65-8.657200000000001Q107.65-5.9984 106.35-3.9744000000000006 105.04-1.9412 102.81-0.8280000000000001 100.59 0.2852 97.83 0.2852L97.83 0.2852ZM97.83-3.5328Q99.12-3.5328 100.26-4.1124 101.4-4.692 102.08-5.842 102.76-7.001200000000001 102.76-8.657200000000001L102.76-8.657200000000001Q102.76-11.132 101.35-12.4568 99.94-13.7908 97.9-13.7908L97.9-13.7908Q95.86-13.7908 94.49-12.4568 93.11-11.132 93.11-8.657200000000001L93.11-8.657200000000001Q93.11-6.191600000000001 94.45-4.857600000000001 95.79-3.5328 97.83-3.5328L97.83-3.5328ZM115.91-14.628Q116.83-16.008 118.31-16.79 119.78-17.572000000000003 121.69-17.572000000000003L121.69-17.572000000000003 121.69-12.972 120.43-12.972Q118.19-12.972 117.05-12.006000000000002 115.91-11.040000000000001 115.91-8.629600000000002L115.91-8.629600000000002 115.91 0 111.15 0 111.15-17.3236 115.91-17.3236 115.91-14.628ZM137.83-17.3236L142.89-17.3236 131.24 8.188 126.17 8.188 130.25-0.4416 122.71-17.3236 128.04-17.3236 132.9-5.2164 137.83-17.3236ZM166.99-11.1964Q168.99-10.8468 170.28-9.3472 171.57-7.8476 171.57-5.9064000000000005L171.57-5.9064000000000005Q171.57-4.158399999999999 170.64-2.8336 169.7-1.4996 167.94-0.7544 166.17 0 163.76 0L163.76 0 153.53 0 153.53-21.8224 163.32-21.8224Q165.73-21.8224 167.48-21.1048 169.23-20.3872 170.13-19.099200000000003 171.03-17.820400000000003 171.03-16.192000000000004L171.03-16.192000000000004Q171.03-14.2876 169.92-13.0088 168.82-11.7208 166.99-11.1964L166.99-11.1964ZM158.29-18.2896L158.29-12.8156 162.64-12.8156Q164.33-12.8156 165.25-13.524 166.17-14.223200000000002 166.17-15.538800000000002L166.17-15.538800000000002Q166.17-16.854400000000002 165.25-17.572000000000003 164.33-18.2896 162.64-18.2896L162.64-18.2896 158.29-18.2896ZM163.08-3.5604000000000005Q164.81-3.5604000000000005 165.78-4.314800000000001 166.75-5.0692 166.75-6.44L166.75-6.44Q166.75-7.8476 165.73-8.648000000000001 164.71-9.4392 162.98-9.4392L162.98-9.4392 158.29-9.4392 158.29-3.5604000000000005 163.08-3.5604000000000005ZM183.74 0.2852Q181.02 0.2852 178.84-0.8280000000000001 176.67-1.9412 175.43-3.9744000000000006 174.19-5.9984 174.19-8.657200000000001L174.19-8.657200000000001Q174.19-11.316 175.46-13.3492 176.74-15.382399999999999 178.95-16.4956 181.16-17.5996 183.87-17.5996L183.87-17.5996Q186.59-17.5996 188.8-16.4956 191.01-15.382399999999999 192.28-13.3492 193.56-11.316 193.56-8.657200000000001L193.56-8.657200000000001Q193.56-5.9984 192.25-3.9744000000000006 190.94-1.9412 188.72-0.8280000000000001 186.49 0.2852 183.74 0.2852L183.74 0.2852ZM183.74-3.5328Q185.03-3.5328 186.17-4.1124 187.31-4.692 187.99-5.842 188.67-7.001200000000001 188.67-8.657200000000001L188.67-8.657200000000001Q188.67-11.132 187.26-12.4568 185.84-13.7908 183.81-13.7908L183.81-13.7908Q181.77-13.7908 180.39-12.4568 179.01-11.132 179.01-8.657200000000001L179.01-8.657200000000001Q179.01-6.191600000000001 180.36-4.857600000000001 181.7-3.5328 183.74-3.5328L183.74-3.5328ZM212.83 0L207.46 0 203.58-5.3728 200.15 0 195.05 0 201.2-8.693999999999999 194.99-17.3236 200.35-17.3236 204.19-11.9692 207.66-17.3236 212.76-17.3236 206.57-8.693999999999999 212.83 0Z" transform="translate(-2.3399999141693115, 21.822399139404297)" stroke-width="0.8" stroke-linejoin="round"></path></g> </g></g> </g></g><defs v-gra="od"></defs></g></svg>
